<svg width="871" height="477" viewBox="0 0 871 477" fill="none" xmlns="http://www.w3.org/2000/svg">
<path d="M158.585 473.32C127.849 465.32 100.69 447.233 81.4597 421.958C62.2296 396.682 52.0427 365.682 52.532 333.926C52.6539 326.014 53.4858 317.936 56.8118 310.756C60.1378 303.576 66.3157 297.366 74.0436 295.664C82.4775 293.808 91.3771 297.603 97.6624 303.525C103.948 309.448 108.069 317.261 111.86 325.02C134.698 371.754 152.05 421.9 158.546 473.509L158.585 473.32Z" fill="#F2F2F2"/>
<path d="M70.2174 297.224L86.2235 333.591L102.23 369.958C107.299 381.475 112.358 392.998 117.598 404.439C122.791 415.78 128.163 427.043 133.893 438.123C139.615 449.188 145.697 460.073 152.298 470.639C153.12 471.954 153.95 473.265 154.788 474.571C155.368 475.475 156.819 474.636 156.234 473.725C149.506 463.238 143.307 452.42 137.493 441.402C131.672 430.371 126.232 419.144 120.993 407.827C115.725 396.45 110.661 384.981 105.609 373.506C100.292 361.428 94.9764 349.35 89.6613 337.271L73.6553 300.904L71.6634 296.379C71.2302 295.394 69.7869 296.246 70.2174 297.224V297.224Z" fill="white"/>
<path d="M151.908 473.573C133.791 477.717 114.807 475.658 97.9999 467.727C81.1925 459.796 67.5347 446.451 59.2159 429.832C57.1432 425.691 55.3944 421.273 55.1828 416.647C54.9713 412.021 56.5023 407.129 60.0552 404.16C63.9327 400.919 69.5778 400.487 74.4398 401.865C79.3018 403.243 83.5508 406.187 87.614 409.192C112.087 427.29 134.634 448.641 151.939 473.681L151.908 473.573Z" fill="#F2F2F2"/>
<path d="M58.4896 406.002L76.6174 420.563L94.7452 435.123C100.486 439.734 106.224 444.35 112.033 448.876C117.791 453.362 123.62 457.759 129.586 461.965C135.544 466.165 141.64 470.174 147.92 473.878C148.702 474.339 149.487 474.795 150.274 475.247C150.82 475.56 151.346 474.733 150.797 474.418C144.473 470.789 138.334 466.846 132.34 462.695C126.341 458.54 120.485 454.18 114.71 449.718C108.904 445.234 103.178 440.646 97.4579 436.052C91.4369 431.217 85.4162 426.382 79.3959 421.545L61.2681 406.985L59.0122 405.173C58.5216 404.779 58.002 405.611 58.4896 406.002Z" fill="white"/>
<path d="M720.281 472.409C763.143 461.254 801.018 436.03 827.835 400.782C854.652 365.534 868.858 322.303 868.176 278.019C868.006 266.985 866.846 255.72 862.208 245.707C857.57 235.694 848.954 227.034 838.177 224.662C826.416 222.072 814.005 227.365 805.24 235.624C796.475 243.883 790.728 254.78 785.44 265.6C753.592 330.772 729.395 400.702 720.335 472.672L720.281 472.409Z" fill="#F2F2F2"/>
<path d="M843.513 226.836L821.192 277.551L798.871 328.267C791.802 344.328 784.746 360.397 777.44 376.352C770.197 392.168 762.706 407.874 754.715 423.326C746.735 438.757 738.254 453.935 729.049 468.67C727.902 470.505 726.744 472.333 725.576 474.153C724.767 475.414 722.744 474.245 723.559 472.975C732.941 458.349 741.587 443.263 749.695 427.898C757.812 412.515 765.399 396.859 772.705 381.077C780.051 365.211 787.114 349.216 794.158 333.215C801.572 316.372 808.986 299.528 816.398 282.684L838.719 231.969L841.497 225.657C842.101 224.285 844.114 225.472 843.513 226.836V226.836Z" fill="white"/>
<path d="M729.593 472.762C754.857 478.541 781.331 475.67 804.769 464.61C828.208 453.549 847.254 434.939 858.855 411.764C861.746 405.989 864.184 399.827 864.479 393.377C864.775 386.926 862.64 380.104 857.685 375.963C852.277 371.443 844.405 370.841 837.625 372.763C830.845 374.684 824.919 378.79 819.253 382.98C785.124 408.219 753.682 437.993 729.549 472.913L729.593 472.762Z" fill="#F2F2F2"/>
<path d="M859.868 378.532L834.588 398.837L809.308 419.142C801.302 425.572 793.301 432.01 785.2 438.321C777.17 444.577 769.041 450.709 760.721 456.574C752.412 462.431 743.911 468.022 735.154 473.187C734.063 473.83 732.969 474.467 731.87 475.097C731.11 475.533 730.376 474.38 731.142 473.94C739.961 468.88 748.522 463.381 756.88 457.593C765.247 451.798 773.413 445.717 781.466 439.496C789.563 433.242 797.548 426.844 805.525 420.438C813.922 413.695 822.318 406.952 830.713 400.207L855.993 379.903L859.139 377.376C859.823 376.827 860.548 377.986 859.868 378.532V378.532Z" fill="white"/>
<path d="M215.933 146.87V146.88L207.593 153.85L150.243 166.59C148.478 167.304 146.871 168.358 145.514 169.693C144.156 171.028 143.075 172.617 142.331 174.37C140.83 177.909 140.797 181.901 142.238 185.465C142.952 187.23 144.006 188.837 145.341 190.195C146.676 191.552 148.265 192.633 150.018 193.377C153.558 194.878 157.549 194.911 161.113 193.47L197.643 187.32C199.666 186.984 201.665 186.51 203.623 185.9C204.393 185.67 205.153 185.41 205.903 185.14C209.15 170.993 213.71 157.18 219.523 143.88L215.933 146.87Z" fill="#2F2E41"/>
<path d="M692.273 182.07L684.323 182.02L680.073 182L655.723 139.43C655.928 138.985 656.105 138.527 656.253 138.06C658.963 129.7 651.813 123.95 645.003 124.07C644.228 124.069 643.456 124.16 642.703 124.34C656.117 148.615 665.114 175.079 669.273 202.5C669.964 202.696 670.67 202.836 671.383 202.92C675.098 203.255 678.84 203.127 682.523 202.54C687.483 201.91 692.173 201.02 694.673 201.21L692.273 182.07Z" fill="#A0616A"/>
<path d="M718.483 182.88L689.263 178.82C688.193 178.672 687.105 178.914 686.198 179.502C685.292 180.089 684.626 180.983 684.323 182.02C684.261 182.23 684.214 182.444 684.183 182.66L681.843 199.49C681.685 200.67 681.999 201.865 682.716 202.816C683.432 203.767 684.495 204.397 685.673 204.57L714.893 208.63C718.308 209.106 721.772 208.206 724.523 206.128C727.274 204.05 729.087 200.965 729.563 197.55C730.039 194.135 729.139 190.671 727.061 187.92C724.983 185.169 721.898 183.356 718.483 182.88V182.88Z" fill="#6C63FF"/>
<path d="M671.383 202.92C667.341 175.279 658.408 148.579 645.003 124.07C623.453 84.6651 591.206 52.1526 551.979 30.2809C512.752 8.40924 468.143 -1.93106 423.293 0.452143C378.444 2.83535 335.182 17.845 298.493 43.7507C261.805 69.6564 233.185 105.403 215.933 146.87V146.88C210.701 159.503 206.582 172.56 203.623 185.9C199.829 203.007 197.921 220.478 197.933 238C197.933 301.122 223.008 361.658 267.642 406.291C312.275 450.925 372.812 476 435.933 476C499.055 476 559.591 450.925 604.224 406.291C648.858 361.658 673.933 301.122 673.933 238C673.937 226.26 673.085 214.536 671.383 202.92V202.92ZM435.933 474C305.803 474 199.933 368.13 199.933 238C199.896 205.611 206.566 173.565 219.523 143.88C255.943 60.45 339.243 1.99999 435.933 1.99999C524.883 1.99999 602.493 51.47 642.703 124.34C656.117 148.615 665.114 175.079 669.273 202.5C671.046 214.25 671.936 226.117 671.933 238C671.933 368.13 566.063 474 435.933 474Z" fill="#3F3D56"/>
<path d="M403.683 246C403.683 240.477 421.592 236 443.683 236C465.774 236 483.683 240.477 483.683 246C483.683 251.523 465.774 272 443.683 272C421.592 272 403.683 251.523 403.683 246Z" fill="#3F3D56"/>
<path d="M310.183 244.5C319.572 244.5 327.183 236.889 327.183 227.5C327.183 218.111 319.572 210.5 310.183 210.5C300.794 210.5 293.183 218.111 293.183 227.5C293.183 236.889 300.794 244.5 310.183 244.5Z" fill="#FF6584"/>
<path d="M561.683 245C571.072 245 578.683 237.389 578.683 228C578.683 218.611 571.072 211 561.683 211C552.294 211 544.683 218.611 544.683 228C544.683 237.389 552.294 245 561.683 245Z" fill="#FF6584"/>
<path d="M197.859 463.363L210.119 463.362L215.951 416.074L197.857 416.075L197.859 463.363Z" fill="#FFB8B8"/>
<path d="M233.763 476.745L195.232 476.747L195.232 461.86L218.875 461.859C222.824 461.859 226.61 463.427 229.402 466.219C232.194 469.011 233.763 472.797 233.763 476.745V476.745V476.745Z" fill="#2F2E41"/>
<path d="M136.859 463.363L149.119 463.362L154.951 416.074L136.857 416.075L136.859 463.363Z" fill="#FFB8B8"/>
<path d="M172.763 476.745L134.232 476.747L134.232 461.86L157.875 461.859C161.824 461.859 165.61 463.427 168.402 466.219C171.194 469.011 172.763 472.797 172.763 476.745V476.745V476.745Z" fill="#2F2E41"/>
<path d="M201.21 270.631L211.987 356.017C213.468 367.756 214.505 379.537 215.097 391.363L218 449.431C218.027 449.973 217.944 450.514 217.755 451.022C217.567 451.531 217.277 451.995 216.903 452.388C216.53 452.781 216.08 453.093 215.582 453.307C215.084 453.521 214.547 453.631 214.005 453.631H197.649C196.692 453.631 195.767 453.288 195.041 452.664C194.315 452.041 193.837 451.177 193.694 450.231L178.984 353.318C178.913 352.851 178.679 352.424 178.323 352.112C177.967 351.801 177.513 351.626 177.04 351.618C176.568 351.61 176.108 351.77 175.742 352.069C175.376 352.368 175.127 352.786 175.04 353.251L157.319 448.168C157.144 449.021 156.695 449.794 156.04 450.368C155.386 450.943 154.561 451.288 153.693 451.352L138.639 452.307C138.08 452.348 137.518 452.271 136.991 452.081C136.464 451.891 135.982 451.593 135.578 451.205C135.174 450.817 134.855 450.348 134.643 449.829C134.432 449.31 134.331 448.753 134.349 448.193L139.21 292.631L201.21 270.631Z" fill="#2F2E41"/>
<path d="M153.462 149.011C167.027 149.011 178.023 138.015 178.023 124.45C178.023 110.885 167.027 99.8889 153.462 99.8889C139.897 99.8889 128.901 110.885 128.901 124.45C128.901 138.015 139.897 149.011 153.462 149.011Z" fill="#FFB8B8"/>
<path d="M134.21 294.631C140.21 308.631 166.21 318.631 172.21 298.631C176.85 283.171 195.23 276.671 203.34 274.521C204.359 274.249 205.231 273.587 205.767 272.678C206.302 271.768 206.458 270.684 206.2 269.661L183.53 180.611C182.209 175.424 179.58 170.662 175.892 166.782C172.205 162.902 167.583 160.034 162.47 158.451C144.45 152.871 125.45 164.361 122.4 182.971C121.567 188.189 121.036 193.451 120.81 198.731C118.93 238.021 130.26 285.411 134.21 294.631Z" fill="#6C63FF"/>
<path d="M270.631 214.407C269.421 213.571 268.043 213.011 266.594 212.766C265.145 212.52 263.659 212.596 262.242 212.987C260.825 213.378 259.51 214.074 258.392 215.028C257.273 215.982 256.377 217.169 255.767 218.507L220.19 215.153L228.912 231.546L261.36 232.218C263.675 233.094 266.23 233.091 268.543 232.208C270.855 231.326 272.764 229.626 273.907 227.431C275.049 225.235 275.347 222.697 274.743 220.296C274.14 217.896 272.676 215.801 270.631 214.407V214.407Z" fill="#FFB8B8"/>
<path d="M252.939 232.639C252.516 233.109 251.999 233.485 251.422 233.742C250.844 233.999 250.219 234.132 249.587 234.132L203.147 233.07C191.906 233.062 181.051 228.97 172.601 221.557L144.755 197.136C143.083 196.221 141.608 194.986 140.414 193.501C139.22 192.016 138.33 190.31 137.796 188.48C137.262 186.651 137.094 184.734 137.302 182.84C137.509 180.945 138.088 179.11 139.005 177.44C139.923 175.769 141.16 174.296 142.648 173.105C144.135 171.913 145.843 171.026 147.673 170.495C149.503 169.964 151.42 169.8 153.314 170.01C155.208 170.221 157.042 170.803 158.711 171.723L204.829 208.114L249.732 216.768C250.63 216.988 251.439 217.479 252.049 218.174C252.659 218.869 253.041 219.735 253.143 220.654L254.065 229.146C254.163 230.056 253.982 230.975 253.545 231.78C253.377 232.089 253.174 232.377 252.939 232.639V232.639Z" fill="#2F2E41"/>
<path d="M134.819 144.539C135.348 144.853 135.942 145.04 136.556 145.088C137.169 145.135 137.784 145.04 138.355 144.811C138.926 144.582 139.436 144.225 139.847 143.767C140.257 143.309 140.557 142.763 140.722 142.171L140.736 142.115C141.182 140.251 140.812 138.304 140.684 136.392C140.556 134.48 140.743 132.379 142.045 130.973C144.473 128.351 148.793 129.741 152.304 129.078C154.36 128.619 156.179 127.426 157.42 125.723C158.66 124.02 159.238 121.923 159.044 119.825C158.994 119.428 158.915 119.03 158.828 118.632C158.608 117.624 158.625 116.58 158.877 115.58C159.129 114.58 159.61 113.652 160.281 112.869C160.952 112.086 161.796 111.469 162.745 111.067C163.695 110.664 164.725 110.488 165.754 110.551C169.302 110.754 173.132 111.829 176.068 109.201C177.144 108.164 177.891 106.834 178.216 105.375C178.541 103.917 178.429 102.395 177.894 100.999C176.218 96.1611 171.481 93.6281 166.793 92.2357C160.994 90.5604 154.896 90.1982 148.94 91.1755C142.984 92.1527 137.321 94.4449 132.362 97.8853C129.401 99.9725 126.636 102.595 125.373 105.991C124.111 109.387 124.72 113.671 127.566 115.913C125.36 118.249 123.807 121.123 123.061 124.248C122.316 127.374 122.405 130.64 123.32 133.72C124.726 138.249 131.434 142.592 134.819 144.539Z" fill="#2F2E41"/>
<path d="M664.132 463.174H651.873L646.04 415.886L664.135 415.887L664.132 463.174Z" fill="#A0616A"/>
<path d="M643.116 461.671H666.759V476.558H628.229C628.229 474.603 628.614 472.667 629.362 470.861C630.11 469.054 631.207 467.413 632.589 466.031C633.971 464.649 635.612 463.552 637.419 462.804C639.225 462.056 641.161 461.671 643.116 461.671V461.671Z" fill="#2F2E41"/>
<path d="M751.132 463.174H738.873L733.04 415.886L751.135 415.887L751.132 463.174Z" fill="#A0616A"/>
<path d="M730.116 461.671H753.759V476.558H715.229C715.229 474.603 715.614 472.667 716.362 470.861C717.11 469.054 718.207 467.413 719.589 466.031C720.971 464.649 722.612 463.552 724.419 462.804C726.225 462.056 728.161 461.671 730.116 461.671V461.671Z" fill="#2F2E41"/>
<path d="M664.339 433.886C664.206 433.886 664.073 433.881 663.938 433.87L646.587 432.481C645.898 432.426 645.229 432.229 644.62 431.903C644.012 431.576 643.478 431.127 643.051 430.584C642.625 430.041 642.316 429.415 642.143 428.746C641.971 428.078 641.939 427.381 642.049 426.699L668.357 263.979L670.119 241.028C670.197 239.955 670.621 238.936 671.327 238.125C672.033 237.313 672.984 236.753 674.036 236.527L700.497 230.739C701.47 230.522 702.485 230.602 703.412 230.969C704.338 231.337 705.133 231.975 705.692 232.8L712.144 242.23C714.678 245.896 717.431 249.406 720.389 252.739C724.967 257.953 732.751 269.529 733.449 288.474C733.637 294.698 734.283 300.899 735.383 307.028L756.686 421.789C756.794 422.462 756.763 423.149 756.596 423.81C756.428 424.47 756.127 425.09 755.711 425.629C755.296 426.169 754.774 426.618 754.178 426.949C753.582 427.28 752.925 427.486 752.247 427.553L735.799 428.8C734.622 428.916 733.442 428.609 732.471 427.935C731.499 427.261 730.8 426.263 730.497 425.12L701.32 316.619C701.263 316.406 701.137 316.218 700.962 316.085C700.787 315.951 700.573 315.878 700.353 315.879C700.133 315.879 699.919 315.952 699.744 316.086C699.57 316.221 699.445 316.409 699.388 316.622L669.169 430.173C668.885 431.237 668.257 432.178 667.384 432.849C666.511 433.52 665.441 433.885 664.339 433.886Z" fill="#2F2E41"/>
<path d="M710.482 156.996C724.047 156.996 735.043 145.999 735.043 132.435C735.043 118.87 724.047 107.874 710.482 107.874C696.918 107.874 685.921 118.87 685.921 132.435C685.921 145.999 696.918 156.996 710.482 156.996Z" fill="#A0616A"/>
<path d="M668.853 244.72L668.344 209.646C666.474 187.214 676.408 175.435 685.072 169.51C687.307 168.002 689.824 166.963 692.472 166.457C695.119 165.95 697.842 165.986 700.476 166.562L719.805 170.741C722.497 171.327 725.041 172.454 727.285 174.052C729.529 175.65 731.426 177.686 732.86 180.038C734.232 182.257 735.133 184.734 735.507 187.316C735.88 189.898 735.719 192.529 735.032 195.046C733.689 199.756 730.711 203.834 726.633 206.548C710.024 218.272 708.854 237.967 708.844 238.165L708.823 238.572L668.853 244.72Z" fill="#6C63FF"/>
<path d="M615.206 224.212C614.205 225.408 612.962 226.377 611.558 227.057C610.155 227.737 608.624 228.112 607.065 228.157C605.506 228.202 603.956 227.917 602.516 227.319C601.075 226.721 599.778 225.825 598.71 224.69C589.023 214.531 604.857 199.277 614.581 209.457C614.923 209.809 615.242 210.183 615.533 210.578L664.561 209.359L670.413 198.656L688.398 205.639C684.945 210.994 680.98 232.009 671.95 230.986C670.766 231.018 616.417 224.299 615.206 224.212Z" fill="#A0616A"/>
<path d="M680.793 216.114L667.088 206.056C666.127 205.349 665.486 204.29 665.305 203.11C665.124 201.931 665.418 200.728 666.123 199.766L683.576 175.983C684.586 174.606 685.857 173.442 687.317 172.556C688.777 171.671 690.397 171.082 692.085 170.822C693.773 170.563 695.495 170.639 697.153 171.045C698.811 171.452 700.374 172.181 701.75 173.191C703.127 174.201 704.291 175.473 705.176 176.933C706.061 178.393 706.65 180.013 706.908 181.701C707.167 183.389 707.091 185.111 706.684 186.769C706.277 188.428 705.548 189.989 704.537 191.366L687.084 215.149C686.377 216.11 685.317 216.751 684.138 216.932C682.959 217.113 681.756 216.819 680.793 216.114V216.114Z" fill="#6C63FF"/>
<path d="M704.512 126.296C701.04 127.395 697.435 128.016 693.795 128.142C690.158 128.101 686.379 126.945 683.923 124.263C680.435 120.453 680.481 114.246 683.181 109.842C685.88 105.438 690.726 102.694 695.737 101.438C700.747 100.182 705.981 100.241 711.146 100.311C717.28 95.839 726.223 96.5193 732.517 100.763C738.811 105.006 742.657 112.199 744.29 119.612C745.922 127.025 745.566 134.721 744.947 142.286C744.608 146.432 744.955 151.815 748.916 153.086C751.415 153.888 754.116 152.416 755.908 150.497C757.699 148.579 758.95 146.194 760.822 144.354C764.812 140.433 771.214 139.639 776.485 141.512C781.757 143.385 785.961 147.557 788.926 152.301C792.97 158.773 794.946 166.324 794.589 173.947C794.233 181.57 791.561 188.904 786.931 194.97C782.3 201.036 775.931 205.547 768.671 207.901C761.411 210.255 753.607 210.341 746.298 208.146C732.774 204.085 722.563 192.671 715.993 180.172C707.569 164.065 704.084 145.829 705.974 127.75L704.512 126.296Z" fill="#2F2E41"/>
<path d="M870 477H1C0.734784 477 0.480429 476.895 0.292892 476.707C0.105356 476.52 0 476.265 0 476C0 475.735 0.105356 475.48 0.292892 475.293C0.480429 475.105 0.734784 475 1 475H870C870.265 475 870.52 475.105 870.707 475.293C870.895 475.48 871 475.735 871 476C871 476.265 870.895 476.52 870.707 476.707C870.52 476.895 870.265 477 870 477Z" fill="#3F3D56"/>
</svg>
